<?xml version="1.0" encoding="UTF-8" standalone="no"?>
<svg
   xmlns:dc="http://purl.org/dc/elements/1.1/"
   xmlns:cc="http://creativecommons.org/ns#"
   xmlns:rdf="http://www.w3.org/1999/02/22-rdf-syntax-ns#"
   xmlns:svg="http://www.w3.org/2000/svg"
   xmlns="http://www.w3.org/2000/svg"
   xmlns:sodipodi="http://sodipodi.sourceforge.net/DTD/sodipodi-0.dtd"
   xmlns:inkscape="http://www.inkscape.org/namespaces/inkscape"
   width="14"
   height="14"
   version="1.1"
   style="enable-background:new"
   id="svg8"
   sodipodi:docname="titlebutton-backdrop.svg"
   inkscape:version="0.92.4 5da689c313, 2019-01-14">
  <metadata
     id="metadata14">
    <rdf:RDF>
      <cc:Work
         rdf:about="">
        <dc:format>image/svg+xml</dc:format>
        <dc:type
           rdf:resource="http://purl.org/dc/dcmitype/StillImage" />
        <dc:title></dc:title>
      </cc:Work>
    </rdf:RDF>
  </metadata>
  <defs
     id="defs12" />
  <sodipodi:namedview
     pagecolor="#ffffff"
     bordercolor="#666666"
     borderopacity="1"
     objecttolerance="10"
     gridtolerance="10"
     guidetolerance="10"
     inkscape:pageopacity="0"
     inkscape:pageshadow="2"
     inkscape:window-width="1366"
     inkscape:window-height="709"
     id="namedview10"
     showgrid="false"
     inkscape:zoom="27.812867"
     inkscape:cx="14.686844"
     inkscape:cy="5.5493433"
     inkscape:window-x="0"
     inkscape:window-y="30"
     inkscape:window-maximized="1"
     inkscape:current-layer="svg8"
     showguides="false" />
  <g
     transform="translate(-4.9999997,-1033.3622)"
     id="g6">
    <path
       style="fill:#bababa;fill-opacity:1;fill-rule:evenodd;stroke:none"
       d="m 12.000061,1047.3622 c 3.865929,0 6.999939,-3.134 6.999939,-7 0,-3.866 -3.13401,-7 -6.999939,-7 -3.8660427,0 -7.0000616,3.134 -7.0000616,7 0,3.866 3.1340189,7 7.0000616,7"
       id="path2"
       inkscape:connector-curvature="0" />
    <path
       style="opacity:1;fill:#c8c8c8;fill-opacity:1;fill-rule:evenodd;stroke:none"
       d="m 12.000067,1046.8623 c 3.589781,0 6.499933,-2.9103 6.499933,-6.5001 0,-3.5899 -2.910152,-6.5 -6.499933,-6.5 -3.5899136,0 -6.5000676,2.9101 -6.5000676,6.5 0,3.5898 2.910154,6.5001 6.5000676,6.5001"
       id="path4"
       inkscape:connector-curvature="0" />
  </g>
  <g
     transform="matrix(0.04763929,0,0,0.04763929,2.2021138,2.2880558)"
     id="katman_2"
     data-name="katman 2"
     style="fill:#afafaf">
    <g
       id="katman_3"
       data-name="katman 3"
       style="fill:#afafaf">
      <path
         inkscape:connector-curvature="0"
         class="cls-1"
         d="m 189.32,57.52 c -0.62,-1.36 -1.27,-2.72 -2,-4.07 A 100.1,100.1 0 0 0 176.26,36.59 C 115.74,65 43.68,73.84 2.66,76.59 A 98.81,98.81 0 0 0 7,135.89 c 53.23,-17.36 138.34,-47.86 181.93,-78 z"
         id="path8"
         style="fill:#afafaf" />
      <path
         inkscape:connector-curvature="0"
         class="cls-1"
         d="m 53.45,11.22 a 98.86,98.86 0 0 0 -43,43.69 C 35.06,47.32 90.28,28.43 123.56,3 a 98.91,98.91 0 0 0 -70.11,8.22 z"
         id="path10"
         style="fill:#afafaf" />
      <path
         inkscape:connector-curvature="0"
         class="cls-1"
         d="M 186.64,146.11 A 297.08,297.08 0 0 0 85.43,197.47 v 0 c 0,0 0,0.07 0,0.11 a 99.17,99.17 0 0 0 101.33,-51.42 z"
         id="path12"
         style="fill:#afafaf" />
      <path
         inkscape:connector-curvature="0"
         class="cls-1"
         d="M 197.62,86.88 50,185.23 a 0.91,0.91 0 0 0 0,0.17 100,100 0 0 0 19.52,8.6 v 0 h -0.07 c 22.06,-19.83 67.19,-54.92 126,-72 l 0.42,-0.15 a 99.29,99.29 0 0 0 1.83,-34.92 z"
         id="path14"
         style="fill:#afafaf" />
      <path
         inkscape:connector-curvature="0"
         class="cls-1"
         d="M 35.71,174.49 C 124.57,123.61 69,125.7 16.66,154 l -0.09,0.11 a 98.54,98.54 0 0 0 18.3,20.69 5.61,5.61 0 0 1 0.84,-0.31 z"
         id="path16"
         style="fill:#afafaf" />
    </g>
  </g>
</svg>
