<?xml version="1.0" encoding="UTF-8" standalone="no"?>
<svg
   xmlns:dc="http://purl.org/dc/elements/1.1/"
   xmlns:cc="http://creativecommons.org/ns#"
   xmlns:rdf="http://www.w3.org/1999/02/22-rdf-syntax-ns#"
   xmlns:svg="http://www.w3.org/2000/svg"
   xmlns="http://www.w3.org/2000/svg"
   xmlns:sodipodi="http://sodipodi.sourceforge.net/DTD/sodipodi-0.dtd"
   xmlns:inkscape="http://www.inkscape.org/namespaces/inkscape"
   width="14"
   height="14"
   version="1.1"
   style="enable-background:new"
   id="svg8"
   sodipodi:docname="titlebutton-stick-hover.svg"
   inkscape:version="0.92.4 5da689c313, 2019-01-14">
  <metadata
     id="metadata14">
    <rdf:RDF>
      <cc:Work
         rdf:about="">
        <dc:format>image/svg+xml</dc:format>
        <dc:type
           rdf:resource="http://purl.org/dc/dcmitype/StillImage" />
        <dc:title></dc:title>
      </cc:Work>
    </rdf:RDF>
  </metadata>
  <defs
     id="defs12" />
  <sodipodi:namedview
     pagecolor="#ffffff"
     bordercolor="#666666"
     borderopacity="1"
     objecttolerance="10"
     gridtolerance="10"
     guidetolerance="10"
     inkscape:pageopacity="0"
     inkscape:pageshadow="2"
     inkscape:window-width="1366"
     inkscape:window-height="714"
     id="namedview10"
     showgrid="true"
     inkscape:zoom="41.646213"
     inkscape:cx="5.5590107"
     inkscape:cy="5.8819777"
     inkscape:window-x="0"
     inkscape:window-y="26"
     inkscape:window-maximized="1"
     inkscape:current-layer="svg8" />
  <g
     transform="translate(-4.9999997,-1033.3622)"
     id="g6"
     style="fill:#d4a418;stroke-width:0.1;stroke-miterlimit:4;stroke-dasharray:none">
    <path
       style="fill:#d4a418;fill-opacity:1;fill-rule:evenodd;stroke:none;stroke-width:0.1;stroke-miterlimit:4;stroke-dasharray:none"
       d="m 12.000061,1047.3622 c 3.865929,0 6.999939,-3.134 6.999939,-7 0,-3.866 -3.13401,-7 -6.999939,-7 -3.8660427,0 -7.0000616,3.134 -7.0000616,7 0,3.866 3.1340189,7 7.0000616,7"
       id="path2"
       inkscape:connector-curvature="0" />
    <path
       style="opacity:1;fill:#d4a418;fill-opacity:1;fill-rule:evenodd;stroke:none;stroke-width:0.1;stroke-miterlimit:4;stroke-dasharray:none"
       d="m 12.000067,1046.8623 c 3.589781,0 6.499933,-2.9103 6.499933,-6.5001 0,-3.5899 -2.910152,-6.5 -6.499933,-6.5 -3.5899136,0 -6.5000676,2.9101 -6.5000676,6.5 0,3.5898 2.910154,6.5001 6.5000676,6.5001"
       id="path4"
       inkscape:connector-curvature="0" />
  </g>
  <circle
     style="opacity:1;vector-effect:none;fill:#d0980c;fill-opacity:1;fill-rule:evenodd;stroke:none;stroke-width:0.09341177;stroke-linecap:butt;stroke-linejoin:miter;stroke-miterlimit:4;stroke-dasharray:none;stroke-dashoffset:0;stroke-opacity:1"
     id="path818"
     cx="6.9979582"
     cy="6.9691105"
     r="6.5369163" />
  <flowRoot
     xml:space="preserve"
     id="flowRoot860"
     style="fill:black;fill-opacity:1;stroke:none;font-family:sans-serif;font-style:normal;font-weight:normal;font-size:18.66666667px;line-height:1.25;letter-spacing:0px;word-spacing:0px"><flowRegion
       id="flowRegion862"><rect
         id="rect864"
         width="76.908928"
         height="65.413071"
         x="-29.468264"
         y="-17.896967" /></flowRegion><flowPara
       id="flowPara866" /></flowRoot>  <path
     inkscape:connector-curvature="0"
     style="fill:#b87c00;stroke-width:0.77075243"
     d="M 6.9897293,2.3841048 A 4.6671567,4.5822621 0 0 0 2.3225727,6.9663668 4.6671567,4.5822621 0 0 0 6.9897293,11.548629 4.6671567,4.5822621 0 0 0 11.656885,6.9663668 4.6671567,4.5822621 0 0 0 6.9897293,2.3841048 Z m 0,1.5274206 A 3.1114377,3.0548414 0 0 1 10.101166,6.9663668 3.1114377,3.0548414 0 0 1 6.9897293,10.021208 3.1114377,3.0548414 0 0 1 3.8782916,6.9663668 3.1114377,3.0548414 0 0 1 6.9897293,3.9115254 Z"
     id="path8" />
</svg>
